<svg width="22" height="22" viewBox="0 0 22 22" xmlns="http://www.w3.org/2000/svg"><title>instagram 2</title><g fill-rule="nonzero" fill="#000"><path d="M15.445 0H6.554A6.559 6.559 0 0 0 0 6.554v8.891A6.559 6.559 0 0 0 6.554 22h8.891a6.56 6.56 0 0 0 6.554-6.555V6.554A6.557 6.557 0 0 0 15.445 0zm4.342 15.445a4.343 4.343 0 0 1-4.342 4.342H6.554a4.341 4.341 0 0 1-4.341-4.342V6.554a4.34 4.34 0 0 1 4.341-4.341h8.891a4.342 4.342 0 0 1 4.341 4.341l.001 8.891z"/><path d="M11 5.312A5.693 5.693 0 0 0 5.312 11 5.694 5.694 0 0 0 11 16.688 5.694 5.694 0 0 0 16.688 11 5.693 5.693 0 0 0 11 5.312zm0 9.163a3.475 3.475 0 1 1-.001-6.95 3.475 3.475 0 0 1 .001 6.95zm5.7-10.484a1.363 1.363 0 1 1-1.364 1.364c0-.752.51-1.364 1.364-1.364z"/></g></svg>